<svg width="280" height="160" viewBox="0 0 280 160" fill="none" xmlns="http://www.w3.org/2000/svg">
<g clip-path="url(#clip0_1036_4545)">
<path d="M0 32C0 14.3269 14.3269 0 32 0H248C265.673 0 280 14.3269 280 32V128C280 145.673 265.673 160 248 160H8C3.58172 160 0 156.418 0 152V32Z" fill="white"/>
<path d="M0 32C0 14.3269 14.3269 0 32 0H248C265.673 0 280 14.3269 280 32V128C280 145.673 265.673 160 248 160H8C3.58172 160 0 156.418 0 152V32Z" fill="url(#paint0_linear_1036_4545)" fill-opacity="0.08"/>
<g opacity="0.06">
<path d="M151.382 -12.9695C149.311 -17.2659 144.936 -20 140.13 -20C135.324 -20 130.987 -17.2659 128.877 -12.9695L103.755 38.7044L47.6493 46.9847C42.9608 47.6877 39.0537 50.9686 37.6081 55.4603C36.1625 59.952 37.3346 64.9124 40.6947 68.2323L81.4065 108.501L71.795 165.409C71.0136 170.096 72.9672 174.861 76.8352 177.634C80.7032 180.407 85.8215 180.759 90.0411 178.532L140.169 151.778L190.297 178.532C194.516 180.759 199.635 180.446 203.503 177.634C207.371 174.822 209.324 170.096 208.543 165.409L198.892 108.501L239.604 68.2323C242.964 64.9124 244.175 59.952 242.691 55.4603C241.206 50.9686 237.338 47.6877 232.649 46.9847L176.505 38.7044L151.382 -12.9695Z" fill="black"/>
<path d="M151.382 -12.9695C149.311 -17.2659 144.936 -20 140.13 -20C135.324 -20 130.987 -17.2659 128.877 -12.9695L103.755 38.7044L47.6493 46.9847C42.9608 47.6877 39.0537 50.9686 37.6081 55.4603C36.1625 59.952 37.3346 64.9124 40.6947 68.2323L81.4065 108.501L71.795 165.409C71.0136 170.096 72.9672 174.861 76.8352 177.634C80.7032 180.407 85.8215 180.759 90.0411 178.532L140.169 151.778L190.297 178.532C194.516 180.759 199.635 180.446 203.503 177.634C207.371 174.822 209.324 170.096 208.543 165.409L198.892 108.501L239.604 68.2323C242.964 64.9124 244.175 59.952 242.691 55.4603C241.206 50.9686 237.338 47.6877 232.649 46.9847L176.505 38.7044L151.382 -12.9695Z" fill="url(#paint1_linear_1036_4545)"/>
</g>
<path d="M142.443 57.6873C141.946 56.6562 140.896 56 139.743 56C138.59 56 137.55 56.6562 137.043 57.6873L131.016 70.089L117.555 72.0763C116.43 72.2451 115.493 73.0325 115.146 74.1105C114.799 75.1885 115.08 76.379 115.886 77.1758L125.654 86.8403L123.348 100.498C123.161 101.623 123.629 102.767 124.557 103.432C125.485 104.098 126.713 104.182 127.726 103.648L139.753 97.2266L151.779 103.648C152.792 104.182 154.02 104.107 154.948 103.432C155.876 102.757 156.344 101.623 156.157 100.498L153.842 86.8403L163.609 77.1758C164.415 76.379 164.706 75.1885 164.35 74.1105C163.994 73.0325 163.066 72.2451 161.941 72.0763L148.47 70.089L142.443 57.6873Z" fill="url(#paint2_linear_1036_4545)"/>
</g>
<defs>
<linearGradient id="paint0_linear_1036_4545" x1="140" y1="0" x2="140" y2="160" gradientUnits="userSpaceOnUse">
<stop stop-color="#F2BF53"/>
<stop offset="1" stop-color="#E67158"/>
</linearGradient>
<linearGradient id="paint1_linear_1036_4545" x1="140.158" y1="-20" x2="140.158" y2="180" gradientUnits="userSpaceOnUse">
<stop stop-color="#F2BF53"/>
<stop offset="1" stop-color="#E67158"/>
</linearGradient>
<linearGradient id="paint2_linear_1036_4545" x1="139.75" y1="56" x2="139.75" y2="104" gradientUnits="userSpaceOnUse">
<stop stop-color="#F2BF53"/>
<stop offset="1" stop-color="#E67158"/>
</linearGradient>
<clipPath id="clip0_1036_4545">
<path d="M0 32C0 14.3269 14.3269 0 32 0H248C265.673 0 280 14.3269 280 32V128C280 145.673 265.673 160 248 160H8C3.58172 160 0 156.418 0 152V32Z" fill="white"/>
</clipPath>
</defs>
</svg>
