<svg width="280" height="160" viewBox="0 0 280 160" fill="none" xmlns="http://www.w3.org/2000/svg">
<g clip-path="url(#clip0_1036_4554)">
<path d="M0 32C0 14.3269 14.3269 0 32 0H248C265.673 0 280 14.3269 280 32V128C280 145.673 265.673 160 248 160H8C3.58172 160 0 156.418 0 152V32Z" fill="white"/>
<path d="M0 32C0 14.3269 14.3269 0 32 0H248C265.673 0 280 14.3269 280 32V128C280 145.673 265.673 160 248 160H8C3.58172 160 0 156.418 0 152V32Z" fill="white"/>
<path d="M0 32C0 14.3269 14.3269 0 32 0H248C265.673 0 280 14.3269 280 32V128C280 145.673 265.673 160 248 160H8C3.58172 160 0 156.418 0 152V32Z" fill="url(#paint0_linear_1036_4554)" fill-opacity="0.08"/>
<path opacity="0.06" d="M57.8615 84.3188C88.7128 53.8049 88.7128 4.3886 57.8615 -26.1253C30.5594 -53.1287 -12.4686 -56.6392 -43.866 -34.4423L-44.7396 -33.8483C-52.6026 -28.2856 -54.4046 -17.4842 -48.7803 -9.7612C-43.1561 -2.03822 -32.2353 -0.201981 -24.4269 -5.76469L-23.5532 -6.35876C-6.02531 -18.7263 17.9459 -16.7821 33.1258 -1.71417C50.3261 15.298 50.3261 42.8415 33.1258 59.8537L-28.14 120.557C-45.3403 137.57 -73.1884 137.57 -90.3887 120.557C-105.623 105.49 -107.589 81.7805 -95.0846 64.4983L-94.484 63.6342C-88.8598 55.8572 -90.7163 45.0558 -98.5247 39.5471C-106.333 34.0384 -117.309 35.8206 -122.878 43.5436L-123.479 44.4077C-145.976 75.4077 -142.426 117.965 -115.124 144.969C-84.273 175.482 -34.3103 175.482 -3.45894 144.969L57.8615 84.3188ZM-225.862 71.6812C-256.713 102.195 -256.713 151.611 -225.862 182.125C-198.559 209.129 -155.531 212.639 -124.134 190.442L-123.26 189.848C-115.397 184.286 -113.595 173.484 -119.22 165.761C-124.844 158.038 -135.765 156.202 -143.573 161.765L-144.447 162.359C-161.975 174.726 -185.946 172.782 -201.126 157.714C-218.326 140.648 -218.326 113.104 -201.126 96.0923L-139.86 35.4426C-122.66 18.4304 -94.8116 18.4304 -77.6113 35.4426C-62.3768 50.5105 -60.411 74.2195 -72.9154 91.5557L-73.516 92.4198C-79.1402 100.197 -77.2837 110.998 -69.4753 116.507C-61.6669 122.016 -50.6915 120.233 -45.1219 112.51L-44.5212 111.646C-22.0243 80.5923 -25.5736 38.0349 -52.8757 11.0315C-83.727 -19.4824 -133.69 -19.4824 -164.541 11.0315L-225.862 71.6812Z" fill="url(#paint1_linear_1036_4554)"/>
<path opacity="0.06" d="M510.861 84.3188C541.713 53.8049 541.713 4.3886 510.861 -26.1253C483.559 -53.1287 440.531 -56.6392 409.134 -34.4423L408.26 -33.8483C400.397 -28.2856 398.595 -17.4842 404.22 -9.7612C409.844 -2.03822 420.765 -0.201981 428.573 -5.76469L429.447 -6.35876C446.975 -18.7263 470.946 -16.7821 486.126 -1.71417C503.326 15.298 503.326 42.8415 486.126 59.8537L424.86 120.557C407.66 137.57 379.812 137.57 362.611 120.557C347.377 105.49 345.411 81.7805 357.915 64.4983L358.516 63.6342C364.14 55.8572 362.284 45.0558 354.475 39.5471C346.667 34.0384 335.691 35.8206 330.122 43.5436L329.521 44.4077C307.024 75.4077 310.574 117.965 337.876 144.969C368.727 175.482 418.69 175.482 449.541 144.969L510.861 84.3188ZM227.138 71.6812C196.287 102.195 196.287 151.611 227.138 182.125C254.441 209.129 297.469 212.639 328.866 190.442L329.74 189.848C337.603 184.286 339.405 173.484 333.78 165.761C328.156 158.038 317.235 156.202 309.427 161.765L308.553 162.359C291.025 174.726 267.054 172.782 251.874 157.714C234.674 140.648 234.674 113.104 251.874 96.0923L313.14 35.4426C330.34 18.4304 358.188 18.4304 375.389 35.4426C390.623 50.5105 392.589 74.2195 380.085 91.5557L379.484 92.4198C373.86 100.197 375.716 110.998 383.525 116.507C391.333 122.016 402.309 120.233 407.878 112.51L408.479 111.646C430.976 80.5923 427.426 38.0349 400.124 11.0315C369.273 -19.4824 319.31 -19.4824 288.459 11.0315L227.138 71.6812Z" fill="url(#paint2_linear_1036_4554)"/>
<path d="M166.593 81.1941C172.383 75.4277 172.383 66.0892 166.593 60.3228C161.469 55.2198 153.393 54.5564 147.5 58.7511L147.336 58.8633C145.861 59.9145 145.522 61.9557 146.578 63.4152C147.633 64.8747 149.683 65.2217 151.149 64.1705L151.313 64.0582C154.602 61.721 159.101 62.0884 161.95 64.9359C165.179 68.1508 165.179 73.3559 161.95 76.5708L150.452 88.0423C147.224 91.2572 141.997 91.2572 138.769 88.0423C135.909 85.1949 135.54 80.7144 137.887 77.4485L138 77.2852C139.056 75.8155 138.707 73.7743 137.242 72.7333C135.776 71.6923 133.716 72.0291 132.671 73.4886L132.558 73.6519C128.336 79.5101 129.002 87.5525 134.126 92.6555C139.917 98.4219 149.294 98.4219 155.084 92.6555L166.593 81.1941ZM113.343 78.8059C107.552 84.5723 107.552 93.9108 113.343 99.6772C118.467 104.78 126.542 105.444 132.435 101.249L132.599 101.137C134.075 100.085 134.413 98.0443 133.358 96.5848C132.302 95.1253 130.252 94.7783 128.787 95.8295L128.623 95.9418C125.333 98.279 120.834 97.9116 117.985 95.0641C114.757 91.839 114.757 86.6339 117.985 83.419L129.484 71.9577C132.712 68.7428 137.939 68.7428 141.167 71.9577C144.026 74.8051 144.395 79.2856 142.048 82.5617L141.935 82.725C140.88 84.1947 141.228 86.2359 142.694 87.2769C144.159 88.3179 146.219 87.9811 147.265 86.5217L147.377 86.3584C151.6 80.4899 150.933 72.4475 145.809 67.3445C140.019 61.5781 130.642 61.5781 124.852 67.3445L113.343 78.8059Z" fill="url(#paint3_linear_1036_4554)"/>
</g>
<defs>
<linearGradient id="paint0_linear_1036_4554" x1="280" y1="160" x2="-5.43022" y2="149.642" gradientUnits="userSpaceOnUse">
<stop stop-color="#307DF6"/>
<stop offset="1" stop-color="#14BBBF"/>
</linearGradient>
<linearGradient id="paint1_linear_1036_4554" x1="81" y1="205" x2="-255.599" y2="195.932" gradientUnits="userSpaceOnUse">
<stop stop-color="#307DF6"/>
<stop offset="1" stop-color="#14BBBF"/>
</linearGradient>
<linearGradient id="paint2_linear_1036_4554" x1="534" y1="205" x2="197.401" y2="195.932" gradientUnits="userSpaceOnUse">
<stop stop-color="#307DF6"/>
<stop offset="1" stop-color="#14BBBF"/>
</linearGradient>
<linearGradient id="paint3_linear_1036_4554" x1="170.935" y1="104" x2="107.761" y2="102.31" gradientUnits="userSpaceOnUse">
<stop stop-color="#307DF6"/>
<stop offset="1" stop-color="#14BBBF"/>
</linearGradient>
<clipPath id="clip0_1036_4554">
<path d="M0 32C0 14.3269 14.3269 0 32 0H248C265.673 0 280 14.3269 280 32V128C280 145.673 265.673 160 248 160H8C3.58172 160 0 156.418 0 152V32Z" fill="white"/>
</clipPath>
</defs>
</svg>
