<svg width="280" height="160" viewBox="0 0 280 160" fill="none" xmlns="http://www.w3.org/2000/svg">
<g clip-path="url(#clip0_1036_4564)">
<path d="M0 32C0 14.3269 14.3269 0 32 0H248C265.673 0 280 14.3269 280 32V128C280 145.673 265.673 160 248 160H8C3.58172 160 0 156.418 0 152V32Z" fill="white"/>
<path d="M0 32C0 14.3269 14.3269 0 32 0H248C265.673 0 280 14.3269 280 32V128C280 145.673 265.673 160 248 160H8C3.58172 160 0 156.418 0 152V32Z" fill="white"/>
<path d="M0 32C0 14.3269 14.3269 0 32 0H248C265.673 0 280 14.3269 280 32V128C280 145.673 265.673 160 248 160H8C3.58172 160 0 156.418 0 152V32Z" fill="url(#paint0_linear_1036_4564)" fill-opacity="0.08"/>
<g opacity="0.06">
<path d="M52.0465 -25.4286C52.0465 -35.1478 59.9095 -43 69.6419 -43H201.607C208.865 -43 215.353 -38.5522 217.993 -31.7982C220.632 -25.0442 218.817 -17.3567 213.484 -12.4696L141.288 53.6429H153.22C194.514 53.6429 228 87.0835 228 128.321C228 169.559 194.514 203 153.22 203H110.001C86.6874 203 65.353 189.821 54.9058 169.01L53.8611 166.924C49.5172 158.248 53.0363 147.705 61.724 143.367C70.4117 139.029 80.9689 142.543 85.3127 151.219L86.3575 153.306C90.8113 162.256 99.9939 167.857 109.946 167.857H153.22C175.104 167.857 192.809 150.176 192.809 128.321C192.809 106.467 175.104 88.7857 153.22 88.7857H96.0349C88.7768 88.7857 82.2885 84.338 79.6492 77.5839C77.0099 70.8299 78.8245 63.1424 84.158 58.2554L156.354 -7.85714H69.6419C59.9095 -7.85714 52.0465 -15.7094 52.0465 -25.4286Z" fill="black"/>
<path d="M52.0465 -25.4286C52.0465 -35.1478 59.9095 -43 69.6419 -43H201.607C208.865 -43 215.353 -38.5522 217.993 -31.7982C220.632 -25.0442 218.817 -17.3567 213.484 -12.4696L141.288 53.6429H153.22C194.514 53.6429 228 87.0835 228 128.321C228 169.559 194.514 203 153.22 203H110.001C86.6874 203 65.353 189.821 54.9058 169.01L53.8611 166.924C49.5172 158.248 53.0363 147.705 61.724 143.367C70.4117 139.029 80.9689 142.543 85.3127 151.219L86.3575 153.306C90.8113 162.256 99.9939 167.857 109.946 167.857H153.22C175.104 167.857 192.809 150.176 192.809 128.321C192.809 106.467 175.104 88.7857 153.22 88.7857H96.0349C88.7768 88.7857 82.2885 84.338 79.6492 77.5839C77.0099 70.8299 78.8245 63.1424 84.158 58.2554L156.354 -7.85714H69.6419C59.9095 -7.85714 52.0465 -15.7094 52.0465 -25.4286Z" fill="url(#paint1_linear_1036_4564)"/>
</g>
<path d="M123.009 59.4286C123.009 57.5321 124.541 56 126.438 56H152.152C153.566 56 154.83 56.8679 155.345 58.1857C155.859 59.5036 155.505 61.0036 154.466 61.9571L140.398 74.8571H142.723C150.77 74.8571 157.295 81.3821 157.295 89.4286C157.295 97.475 150.77 104 142.723 104H134.302C129.759 104 125.602 101.429 123.566 97.3679L123.363 96.9607C122.516 95.2679 123.202 93.2107 124.895 92.3643C126.588 91.5179 128.645 92.2036 129.491 93.8964L129.695 94.3036C130.563 96.05 132.352 97.1429 134.291 97.1429H142.723C146.988 97.1429 150.438 93.6929 150.438 89.4286C150.438 85.1643 146.988 81.7143 142.723 81.7143H131.58C130.166 81.7143 128.902 80.8464 128.388 79.5286C127.873 78.2107 128.227 76.7107 129.266 75.7571L143.334 62.8571H126.438C124.541 62.8571 123.009 61.325 123.009 59.4286Z" fill="black"/>
<path d="M123.009 59.4286C123.009 57.5321 124.541 56 126.438 56H152.152C153.566 56 154.83 56.8679 155.345 58.1857C155.859 59.5036 155.505 61.0036 154.466 61.9571L140.398 74.8571H142.723C150.77 74.8571 157.295 81.3821 157.295 89.4286C157.295 97.475 150.77 104 142.723 104H134.302C129.759 104 125.602 101.429 123.566 97.3679L123.363 96.9607C122.516 95.2679 123.202 93.2107 124.895 92.3643C126.588 91.5179 128.645 92.2036 129.491 93.8964L129.695 94.3036C130.563 96.05 132.352 97.1429 134.291 97.1429H142.723C146.988 97.1429 150.438 93.6929 150.438 89.4286C150.438 85.1643 146.988 81.7143 142.723 81.7143H131.58C130.166 81.7143 128.902 80.8464 128.388 79.5286C127.873 78.2107 128.227 76.7107 129.266 75.7571L143.334 62.8571H126.438C124.541 62.8571 123.009 61.325 123.009 59.4286Z" fill="url(#paint2_linear_1036_4564)"/>
</g>
<defs>
<linearGradient id="paint0_linear_1036_4564" x1="280" y1="160" x2="-5.43022" y2="149.642" gradientUnits="userSpaceOnUse">
<stop stop-color="#4433F1"/>
<stop offset="1" stop-color="#628EFF"/>
</linearGradient>
<linearGradient id="paint1_linear_1036_4564" x1="228" y1="203" x2="48.39" y2="200.335" gradientUnits="userSpaceOnUse">
<stop stop-color="#4433F1"/>
<stop offset="1" stop-color="#628EFF"/>
</linearGradient>
<linearGradient id="paint2_linear_1036_4564" x1="157.295" y1="104" x2="122.297" y2="103.481" gradientUnits="userSpaceOnUse">
<stop stop-color="#4433F1"/>
<stop offset="1" stop-color="#628EFF"/>
</linearGradient>
<clipPath id="clip0_1036_4564">
<path d="M0 32C0 14.3269 14.3269 0 32 0H248C265.673 0 280 14.3269 280 32V128C280 145.673 265.673 160 248 160H8C3.58172 160 0 156.418 0 152V32Z" fill="white"/>
</clipPath>
</defs>
</svg>
