<svg width="280" height="160" viewBox="0 0 280 160" fill="none" xmlns="http://www.w3.org/2000/svg">
<g clip-path="url(#clip0_1036_4573)">
<path d="M0 32C0 14.3269 14.3269 0 32 0H248C265.673 0 280 14.3269 280 32V128C280 145.673 265.673 160 248 160H8C3.58172 160 0 156.418 0 152V32Z" fill="white"/>
<path d="M0 32C0 14.3269 14.3269 0 32 0H248C265.673 0 280 14.3269 280 32V128C280 145.673 265.673 160 248 160H8C3.58172 160 0 156.418 0 152V32Z" fill="white"/>
<path d="M0 32C0 14.3269 14.3269 0 32 0H248C265.673 0 280 14.3269 280 32V128C280 145.673 265.673 160 248 160H8C3.58172 160 0 156.418 0 152V32Z" fill="url(#paint0_linear_1036_4573)" fill-opacity="0.08"/>
<g opacity="0.08">
<path d="M137.789 -21.9176C142.105 -31.0594 138.192 -41.9725 128.984 -46.2577C119.777 -50.543 108.786 -46.6577 104.471 -37.5159L30.7565 117.953C28.0519 123.609 28.5123 130.237 31.8499 135.551C35.1874 140.865 41.1145 144.007 47.4443 144.007H176.343V189.716C176.343 199.829 184.572 208 194.758 208C204.943 208 213.172 199.829 213.172 189.716V144.007H231.586C241.771 144.007 250 135.837 250 125.723C250 115.61 241.771 107.44 231.586 107.44H213.172V25.163C213.172 15.0498 204.943 6.87926 194.758 6.87926C184.572 6.87926 176.343 15.0498 176.343 25.163V107.44H76.4466L137.789 -21.9176Z" fill="black"/>
<path d="M137.789 -21.9176C142.105 -31.0594 138.192 -41.9725 128.984 -46.2577C119.777 -50.543 108.786 -46.6577 104.471 -37.5159L30.7565 117.953C28.0519 123.609 28.5123 130.237 31.8499 135.551C35.1874 140.865 41.1145 144.007 47.4443 144.007H176.343V189.716C176.343 199.829 184.572 208 194.758 208C204.943 208 213.172 199.829 213.172 189.716V144.007H231.586C241.771 144.007 250 135.837 250 125.723C250 115.61 241.771 107.44 231.586 107.44H213.172V25.163C213.172 15.0498 204.943 6.87926 194.758 6.87926C184.572 6.87926 176.343 15.0498 176.343 25.163V107.44H76.4466L137.789 -21.9176Z" fill="url(#paint1_linear_1036_4573)"/>
</g>
<path d="M139.253 60.8905C140.057 59.1764 139.328 57.1302 137.614 56.3267C135.9 55.5232 133.854 56.2517 133.051 57.9658L119.327 87.1161C118.823 88.1767 118.909 89.4195 119.531 90.4158C120.152 91.4121 121.255 92.0013 122.434 92.0013H146.431V100.572C146.431 102.468 147.963 104 149.859 104C151.756 104 153.288 102.468 153.288 100.572V92.0013H156.716C158.612 92.0013 160.144 90.4693 160.144 88.5731C160.144 86.6769 158.612 85.1449 156.716 85.1449H153.288V69.7181C153.288 67.8218 151.756 66.2899 149.859 66.2899C147.963 66.2899 146.431 67.8218 146.431 69.7181V85.1449H127.833L139.253 60.8905Z" fill="black"/>
<path d="M139.253 60.8905C140.057 59.1764 139.328 57.1302 137.614 56.3267C135.9 55.5232 133.854 56.2517 133.051 57.9658L119.327 87.1161C118.823 88.1767 118.909 89.4195 119.531 90.4158C120.152 91.4121 121.255 92.0013 122.434 92.0013H146.431V100.572C146.431 102.468 147.963 104 149.859 104C151.756 104 153.288 102.468 153.288 100.572V92.0013H156.716C158.612 92.0013 160.144 90.4693 160.144 88.5731C160.144 86.6769 158.612 85.1449 156.716 85.1449H153.288V69.7181C153.288 67.8218 151.756 66.2899 149.859 66.2899C147.963 66.2899 146.431 67.8218 146.431 69.7181V85.1449H127.833L139.253 60.8905Z" fill="url(#paint2_linear_1036_4573)"/>
</g>
<defs>
<linearGradient id="paint0_linear_1036_4573" x1="140" y1="0" x2="140" y2="160" gradientUnits="userSpaceOnUse">
<stop stop-color="#97F2B5"/>
<stop offset="1" stop-color="#62C67A"/>
</linearGradient>
<linearGradient id="paint1_linear_1036_4573" x1="139.5" y1="-48" x2="139.5" y2="208" gradientUnits="userSpaceOnUse">
<stop stop-color="#97F2B5"/>
<stop offset="1" stop-color="#62C67A"/>
</linearGradient>
<linearGradient id="paint2_linear_1036_4573" x1="139.572" y1="56" x2="139.572" y2="104" gradientUnits="userSpaceOnUse">
<stop stop-color="#97F2B5"/>
<stop offset="1" stop-color="#62C67A"/>
</linearGradient>
<clipPath id="clip0_1036_4573">
<path d="M0 32C0 14.3269 14.3269 0 32 0H248C265.673 0 280 14.3269 280 32V128C280 145.673 265.673 160 248 160H8C3.58172 160 0 156.418 0 152V32Z" fill="white"/>
</clipPath>
</defs>
</svg>
