<svg width="280" height="160" viewBox="0 0 280 160" fill="none" xmlns="http://www.w3.org/2000/svg">
<g clip-path="url(#clip0_1036_4583)">
<path d="M0 32C0 14.3269 14.3269 0 32 0H248C265.673 0 280 14.3269 280 32V128C280 145.673 265.673 160 248 160H8C3.58172 160 0 156.418 0 152V32Z" fill="white"/>
<path d="M0 32C0 14.3269 14.3269 0 32 0H248C265.673 0 280 14.3269 280 32V128C280 145.673 265.673 160 248 160H8C3.58172 160 0 156.418 0 152V32Z" fill="url(#paint0_linear_1036_4583)" fill-opacity="0.08"/>
<g opacity="0.06">
<path d="M73.8692 -22.3804C75.3216 -30.2518 82.1687 -36 90.2088 -36H189.802C198.983 -36 206.401 -28.5946 206.401 -19.4286C206.401 -10.2625 198.983 -2.85714 189.802 -2.85714H104.058L93.4767 55.1429H152.455C191.41 55.1429 223 86.6804 223 125.571C223 164.462 191.41 196 152.455 196H109.142C88.7045 196 70.0307 184.452 60.9013 166.223L58.7746 161.977C54.6768 153.795 57.9965 143.852 66.1922 139.761C74.388 135.67 84.3473 138.984 88.4451 147.166L90.5719 151.412C94.0991 158.455 101.257 162.857 109.142 162.857H152.455C173.1 162.857 189.802 146.182 189.802 125.571C189.802 104.961 173.1 88.2857 152.455 88.2857H73.6099C68.6821 88.2857 64.0136 86.1107 60.8495 82.3304C57.6853 78.55 56.3885 73.5786 57.2703 68.7625L73.8692 -22.3804Z" fill="black"/>
<path d="M73.8692 -22.3804C75.3216 -30.2518 82.1687 -36 90.2088 -36H189.802C198.983 -36 206.401 -28.5946 206.401 -19.4286C206.401 -10.2625 198.983 -2.85714 189.802 -2.85714H104.058L93.4767 55.1429H152.455C191.41 55.1429 223 86.6804 223 125.571C223 164.462 191.41 196 152.455 196H109.142C88.7045 196 70.0307 184.452 60.9013 166.223L58.7746 161.977C54.6768 153.795 57.9965 143.852 66.1922 139.761C74.388 135.67 84.3473 138.984 88.4451 147.166L90.5719 151.412C94.0991 158.455 101.257 162.857 109.142 162.857H152.455C173.1 162.857 189.802 146.182 189.802 125.571C189.802 104.961 173.1 88.2857 152.455 88.2857H73.6099C68.6821 88.2857 64.0136 86.1107 60.8495 82.3304C57.6853 78.55 56.3885 73.5786 57.2703 68.7625L73.8692 -22.3804Z" fill="url(#paint1_linear_1036_4583)"/>
</g>
<path d="M126.484 58.8179C126.784 57.1893 128.199 56 129.859 56H150.431C152.327 56 153.859 57.5321 153.859 59.4286C153.859 61.325 152.327 62.8571 150.431 62.8571H132.72L130.534 74.8571H142.717C150.763 74.8571 157.288 81.3821 157.288 89.4286C157.288 97.475 150.763 104 142.717 104H133.77C129.549 104 125.692 101.611 123.806 97.8393L123.367 96.9607C122.52 95.2679 123.206 93.2107 124.899 92.3643C126.592 91.5179 128.649 92.2036 129.495 93.8964L129.934 94.775C130.663 96.2321 132.142 97.1429 133.77 97.1429H142.717C146.981 97.1429 150.431 93.6929 150.431 89.4286C150.431 85.1643 146.981 81.7143 142.717 81.7143H126.431C125.413 81.7143 124.449 81.2643 123.795 80.4821C123.142 79.7 122.874 78.6714 123.056 77.675L126.484 58.8179Z" fill="black"/>
<path d="M126.484 58.8179C126.784 57.1893 128.199 56 129.859 56H150.431C152.327 56 153.859 57.5321 153.859 59.4286C153.859 61.325 152.327 62.8571 150.431 62.8571H132.72L130.534 74.8571H142.717C150.763 74.8571 157.288 81.3821 157.288 89.4286C157.288 97.475 150.763 104 142.717 104H133.77C129.549 104 125.692 101.611 123.806 97.8393L123.367 96.9607C122.52 95.2679 123.206 93.2107 124.899 92.3643C126.592 91.5179 128.649 92.2036 129.495 93.8964L129.934 94.775C130.663 96.2321 132.142 97.1429 133.77 97.1429H142.717C146.981 97.1429 150.431 93.6929 150.431 89.4286C150.431 85.1643 146.981 81.7143 142.717 81.7143H126.431C125.413 81.7143 124.449 81.2643 123.795 80.4821C123.142 79.7 122.874 78.6714 123.056 77.675L126.484 58.8179Z" fill="url(#paint2_linear_1036_4583)"/>
</g>
<defs>
<linearGradient id="paint0_linear_1036_4583" x1="140" y1="0" x2="140" y2="160" gradientUnits="userSpaceOnUse">
<stop stop-color="#CD9EF1"/>
<stop offset="1" stop-color="#940DFF"/>
<stop offset="1" stop-color="#9C56D2"/>
</linearGradient>
<linearGradient id="paint1_linear_1036_4583" x1="140" y1="-36" x2="140" y2="196" gradientUnits="userSpaceOnUse">
<stop stop-color="#CD9EF1"/>
<stop offset="1" stop-color="#940DFF"/>
<stop offset="1" stop-color="#9C56D2"/>
</linearGradient>
<linearGradient id="paint2_linear_1036_4583" x1="140.144" y1="56" x2="140.144" y2="104" gradientUnits="userSpaceOnUse">
<stop stop-color="#CD9EF1"/>
<stop offset="1" stop-color="#940DFF"/>
<stop offset="1" stop-color="#9C56D2"/>
</linearGradient>
<clipPath id="clip0_1036_4583">
<path d="M0 32C0 14.3269 14.3269 0 32 0H248C265.673 0 280 14.3269 280 32V128C280 145.673 265.673 160 248 160H8C3.58172 160 0 156.418 0 152V32Z" fill="white"/>
</clipPath>
</defs>
</svg>
