<svg width="280" height="160" viewBox="0 0 280 160" fill="none" xmlns="http://www.w3.org/2000/svg">
<g clip-path="url(#clip0_1036_4592)">
<path d="M0 32C0 14.3269 14.3269 0 32 0H248C265.673 0 280 14.3269 280 32V128C280 145.673 265.673 160 248 160H8C3.58172 160 0 156.418 0 152V32Z" fill="white"/>
<path d="M0 32C0 14.3269 14.3269 0 32 0H248C265.673 0 280 14.3269 280 32V128C280 145.673 265.673 160 248 160H8C3.58172 160 0 156.418 0 152V32Z" fill="url(#paint0_linear_1036_4592)" fill-opacity="0.08"/>
<g opacity="0.08">
<path d="M54.793 52.9297L58.832 59.9766C62.3984 66.207 68.2422 70.8047 75.1602 72.7812L100.039 79.8711C107.43 81.9766 112.5 88.7227 112.5 96.4141V113.559C112.5 118.285 115.164 122.582 119.375 124.688C123.586 126.793 126.25 131.09 126.25 135.816V152.574C126.25 159.277 132.652 164.133 139.098 162.285C146.016 160.309 151.387 154.766 153.148 147.762L154.352 142.949C156.156 135.688 160.883 129.457 167.371 125.762L170.852 123.785C177.297 120.133 181.25 113.258 181.25 105.867V102.301C181.25 96.8438 179.059 91.6016 175.191 87.7344L173.516 86.0586C169.648 82.1914 164.406 80 158.949 80H140.43C135.66 80 130.934 78.7539 126.766 76.3906L111.941 67.9258C110.094 66.8516 108.676 65.1328 107.988 63.1133C106.613 58.9883 108.461 54.5195 112.371 52.5859L114.906 51.2969C117.742 49.8789 121.051 49.6211 124.059 50.6523L134.027 53.9609C137.551 55.1211 141.418 53.7891 143.438 50.7383C145.457 47.7305 145.242 43.7344 142.922 40.9414L137.078 33.9375C132.781 28.7812 132.824 21.2617 137.207 16.1914L143.953 8.32812C147.734 3.90234 148.336 -2.41406 145.457 -7.44141L144.426 -9.24609C142.922 -9.33203 141.461 -9.375 139.957 -9.375C100.082 -9.375 66.2656 16.793 54.793 52.9297ZM229.375 80C229.375 64.1875 225.25 49.3203 218.031 36.3867L207.031 40.8125C200.285 43.5195 196.805 51.0391 199.082 57.9141L206.344 79.6992C207.848 84.168 211.5 87.5625 216.055 88.6797L228.559 91.8164C229.074 87.9492 229.332 83.9961 229.332 80H229.375ZM250 80C250 140.758 200.758 190 140 190C79.2422 190 30 140.758 30 80C30 19.2422 79.2422 -30 140 -30C200.758 -30 250 19.2422 250 80Z" fill="black"/>
<path d="M54.793 52.9297L58.832 59.9766C62.3984 66.207 68.2422 70.8047 75.1602 72.7812L100.039 79.8711C107.43 81.9766 112.5 88.7227 112.5 96.4141V113.559C112.5 118.285 115.164 122.582 119.375 124.688C123.586 126.793 126.25 131.09 126.25 135.816V152.574C126.25 159.277 132.652 164.133 139.098 162.285C146.016 160.309 151.387 154.766 153.148 147.762L154.352 142.949C156.156 135.688 160.883 129.457 167.371 125.762L170.852 123.785C177.297 120.133 181.25 113.258 181.25 105.867V102.301C181.25 96.8438 179.059 91.6016 175.191 87.7344L173.516 86.0586C169.648 82.1914 164.406 80 158.949 80H140.43C135.66 80 130.934 78.7539 126.766 76.3906L111.941 67.9258C110.094 66.8516 108.676 65.1328 107.988 63.1133C106.613 58.9883 108.461 54.5195 112.371 52.5859L114.906 51.2969C117.742 49.8789 121.051 49.6211 124.059 50.6523L134.027 53.9609C137.551 55.1211 141.418 53.7891 143.438 50.7383C145.457 47.7305 145.242 43.7344 142.922 40.9414L137.078 33.9375C132.781 28.7812 132.824 21.2617 137.207 16.1914L143.953 8.32812C147.734 3.90234 148.336 -2.41406 145.457 -7.44141L144.426 -9.24609C142.922 -9.33203 141.461 -9.375 139.957 -9.375C100.082 -9.375 66.2656 16.793 54.793 52.9297ZM229.375 80C229.375 64.1875 225.25 49.3203 218.031 36.3867L207.031 40.8125C200.285 43.5195 196.805 51.0391 199.082 57.9141L206.344 79.6992C207.848 84.168 211.5 87.5625 216.055 88.6797L228.559 91.8164C229.074 87.9492 229.332 83.9961 229.332 80H229.375ZM250 80C250 140.758 200.758 190 140 190C79.2422 190 30 140.758 30 80C30 19.2422 79.2422 -30 140 -30C200.758 -30 250 19.2422 250 80Z" fill="url(#paint1_linear_1036_4592)"/>
</g>
<path d="M118.311 73.1094L119.339 74.9031C120.247 76.4891 121.734 77.6594 123.495 78.1625L129.828 79.9672C131.709 80.5031 133 82.2203 133 84.1781V88.5422C133 89.7453 133.678 90.8391 134.75 91.375C135.822 91.9109 136.5 93.0047 136.5 94.2078V98.4734C136.5 100.18 138.13 101.416 139.77 100.945C141.531 100.442 142.898 99.0312 143.347 97.2484L143.653 96.0234C144.112 94.175 145.316 92.5891 146.967 91.6484L147.853 91.1453C149.494 90.2156 150.5 88.4656 150.5 86.5844V85.6766C150.5 84.2875 149.942 82.9531 148.958 81.9688L148.531 81.5422C147.547 80.5578 146.213 80 144.823 80H140.109C138.895 80 137.692 79.6828 136.631 79.0813L132.858 76.9266C132.387 76.6531 132.027 76.2156 131.852 75.7016C131.502 74.6516 131.972 73.5141 132.967 73.0219L133.613 72.6938C134.334 72.3328 135.177 72.2672 135.942 72.5297L138.48 73.3719C139.377 73.6672 140.361 73.3281 140.875 72.5516C141.389 71.7859 141.334 70.7688 140.744 70.0578L139.256 68.275C138.163 66.9625 138.173 65.0484 139.289 63.7578L141.006 61.7562C141.969 60.6297 142.122 59.0219 141.389 57.7422L141.127 57.2828C140.744 57.2609 140.372 57.25 139.989 57.25C129.839 57.25 121.231 63.9109 118.311 73.1094ZM162.75 80C162.75 75.975 161.7 72.1906 159.862 68.8984L157.062 70.025C155.345 70.7141 154.459 72.6281 155.039 74.3781L156.888 79.9234C157.27 81.0609 158.2 81.925 159.359 82.2094L162.542 83.0078C162.673 82.0234 162.739 81.0172 162.739 80H162.75ZM168 80C168 95.4656 155.466 108 140 108C124.534 108 112 95.4656 112 80C112 64.5344 124.534 52 140 52C155.466 52 168 64.5344 168 80Z" fill="black"/>
<path d="M118.311 73.1094L119.339 74.9031C120.247 76.4891 121.734 77.6594 123.495 78.1625L129.828 79.9672C131.709 80.5031 133 82.2203 133 84.1781V88.5422C133 89.7453 133.678 90.8391 134.75 91.375C135.822 91.9109 136.5 93.0047 136.5 94.2078V98.4734C136.5 100.18 138.13 101.416 139.77 100.945C141.531 100.442 142.898 99.0312 143.347 97.2484L143.653 96.0234C144.112 94.175 145.316 92.5891 146.967 91.6484L147.853 91.1453C149.494 90.2156 150.5 88.4656 150.5 86.5844V85.6766C150.5 84.2875 149.942 82.9531 148.958 81.9688L148.531 81.5422C147.547 80.5578 146.213 80 144.823 80H140.109C138.895 80 137.692 79.6828 136.631 79.0813L132.858 76.9266C132.387 76.6531 132.027 76.2156 131.852 75.7016C131.502 74.6516 131.972 73.5141 132.967 73.0219L133.613 72.6938C134.334 72.3328 135.177 72.2672 135.942 72.5297L138.48 73.3719C139.377 73.6672 140.361 73.3281 140.875 72.5516C141.389 71.7859 141.334 70.7688 140.744 70.0578L139.256 68.275C138.163 66.9625 138.173 65.0484 139.289 63.7578L141.006 61.7562C141.969 60.6297 142.122 59.0219 141.389 57.7422L141.127 57.2828C140.744 57.2609 140.372 57.25 139.989 57.25C129.839 57.25 121.231 63.9109 118.311 73.1094ZM162.75 80C162.75 75.975 161.7 72.1906 159.862 68.8984L157.062 70.025C155.345 70.7141 154.459 72.6281 155.039 74.3781L156.888 79.9234C157.27 81.0609 158.2 81.925 159.359 82.2094L162.542 83.0078C162.673 82.0234 162.739 81.0172 162.739 80H162.75ZM168 80C168 95.4656 155.466 108 140 108C124.534 108 112 95.4656 112 80C112 64.5344 124.534 52 140 52C155.466 52 168 64.5344 168 80Z" fill="url(#paint2_linear_1036_4592)"/>
</g>
<defs>
<linearGradient id="paint0_linear_1036_4592" x1="140" y1="0" x2="140" y2="160" gradientUnits="userSpaceOnUse">
<stop stop-color="#FFD69E"/>
<stop offset="1" stop-color="#FF8694"/>
</linearGradient>
<linearGradient id="paint1_linear_1036_4592" x1="140" y1="-30" x2="140" y2="190" gradientUnits="userSpaceOnUse">
<stop stop-color="#FFD69E"/>
<stop offset="1" stop-color="#FF8694"/>
</linearGradient>
<linearGradient id="paint2_linear_1036_4592" x1="140" y1="52" x2="140" y2="108" gradientUnits="userSpaceOnUse">
<stop stop-color="#FFD69E"/>
<stop offset="1" stop-color="#FF8694"/>
</linearGradient>
<clipPath id="clip0_1036_4592">
<path d="M0 32C0 14.3269 14.3269 0 32 0H248C265.673 0 280 14.3269 280 32V128C280 145.673 265.673 160 248 160H8C3.58172 160 0 156.418 0 152V32Z" fill="white"/>
</clipPath>
</defs>
</svg>
