<svg width="280" height="160" viewBox="0 0 280 160" fill="none" xmlns="http://www.w3.org/2000/svg">
<g clip-path="url(#clip0_1036_4601)">
<path d="M0 32C0 14.3269 14.3269 0 32 0H248C265.673 0 280 14.3269 280 32V128C280 145.673 265.673 160 248 160H8C3.58172 160 0 156.418 0 152V32Z" fill="white"/>
<path d="M0 32C0 14.3269 14.3269 0 32 0H248C265.673 0 280 14.3269 280 32V128C280 145.673 265.673 160 248 160H8C3.58172 160 0 156.418 0 152V32Z" fill="url(#paint0_linear_1036_4601)" fill-opacity="0.08"/>
<g opacity="0.08">
<path d="M207.257 -33.9538C210.422 -41.3387 208.062 -49.9634 201.572 -54.707C195.082 -59.4505 186.233 -59.0193 180.172 -53.7367L42.8684 67.0091C37.5049 71.7526 35.5741 79.3531 38.0949 86.0373C40.6157 92.7214 47.0518 97.2494 54.1852 97.2494H113.987L72.7426 193.954C69.5782 201.339 71.9381 209.963 78.4279 214.707C84.9176 219.451 93.7673 219.019 99.8279 213.737L237.132 92.991C242.495 88.2474 244.426 80.6469 241.905 73.9627C239.384 67.2786 233.002 62.8045 225.815 62.8045H166.013L207.257 -33.9538Z" fill="white"/>
<path d="M207.257 -33.9538C210.422 -41.3387 208.062 -49.9634 201.572 -54.707C195.082 -59.4505 186.233 -59.0193 180.172 -53.7367L42.8684 67.0091C37.5049 71.7526 35.5741 79.3531 38.0949 86.0373C40.6157 92.7214 47.0518 97.2494 54.1852 97.2494H113.987L72.7426 193.954C69.5782 201.339 71.9381 209.963 78.4279 214.707C84.9176 219.451 93.7673 219.019 99.8279 213.737L237.132 92.991C242.495 88.2474 244.426 80.6469 241.905 73.9627C239.384 67.2786 233.002 62.8045 225.815 62.8045H166.013L207.257 -33.9538Z" fill="url(#paint1_linear_1036_4601)"/>
<path d="M207.257 -33.9538C210.422 -41.3387 208.062 -49.9634 201.572 -54.707C195.082 -59.4505 186.233 -59.0193 180.172 -53.7367L42.8684 67.0091C37.5049 71.7526 35.5741 79.3531 38.0949 86.0373C40.6157 92.7214 47.0518 97.2494 54.1852 97.2494H113.987L72.7426 193.954C69.5782 201.339 71.9381 209.963 78.4279 214.707C84.9176 219.451 93.7673 219.019 99.8279 213.737L237.132 92.991C242.495 88.2474 244.426 80.6469 241.905 73.9627C239.384 67.2786 233.002 62.8045 225.815 62.8045H166.013L207.257 -33.9538Z" fill="url(#paint2_linear_1036_4601)"/>
<path d="M175.093 56.8045H225.815C235.525 56.8045 244.126 62.8496 247.519 71.8455C250.931 80.8931 248.309 91.1152 241.107 97.4853L241.1 97.491L241.094 97.4966L103.79 218.242L103.78 218.251L103.77 218.26C95.6231 225.361 83.6684 225.969 74.8872 219.551C66.1424 213.159 62.9643 201.549 67.2246 191.598C67.2256 191.595 67.2266 191.593 67.2276 191.591L104.905 103.249H54.1852C44.5083 103.249 35.8663 97.1312 32.4809 88.1545C29.0687 79.1069 31.6908 68.8848 38.8934 62.5147L38.8997 62.509L38.9061 62.5034L176.21 -58.2423L176.22 -58.251L176.23 -58.2597C184.377 -65.361 196.332 -65.9694 205.113 -59.5509C213.857 -53.1591 217.036 -41.5496 212.776 -31.5983L212.777 -31.601L175.093 56.8045ZM175.093 56.8045L212.772 -31.5906L175.093 56.8045Z" stroke="white" stroke-opacity="0.12" stroke-width="12"/>
</g>
<path d="M155.968 53.5761C156.711 51.8636 156.157 49.8636 154.634 48.7636C153.11 47.6636 151.033 47.7636 149.61 48.9886L117.378 76.9886C116.119 78.0886 115.665 79.8511 116.257 81.4011C116.849 82.9511 118.36 84.0011 120.034 84.0011H134.073L124.391 106.426C123.648 108.139 124.202 110.139 125.725 111.239C127.249 112.339 129.326 112.239 130.749 111.014L162.981 83.0136C164.241 81.9136 164.694 80.1511 164.102 78.6011C163.51 77.0511 162.012 76.0136 160.325 76.0136H146.286L155.968 53.5761Z" fill="white"/>
<path d="M155.968 53.5761C156.711 51.8636 156.157 49.8636 154.634 48.7636C153.11 47.6636 151.033 47.7636 149.61 48.9886L117.378 76.9886C116.119 78.0886 115.665 79.8511 116.257 81.4011C116.849 82.9511 118.36 84.0011 120.034 84.0011H134.073L124.391 106.426C123.648 108.139 124.202 110.139 125.725 111.239C127.249 112.339 129.326 112.239 130.749 111.014L162.981 83.0136C164.241 81.9136 164.694 80.1511 164.102 78.6011C163.51 77.0511 162.012 76.0136 160.325 76.0136H146.286L155.968 53.5761Z" fill="url(#paint3_linear_1036_4601)"/>
<path d="M155.968 53.5761C156.711 51.8636 156.157 49.8636 154.634 48.7636C153.11 47.6636 151.033 47.7636 149.61 48.9886L117.378 76.9886C116.119 78.0886 115.665 79.8511 116.257 81.4011C116.849 82.9511 118.36 84.0011 120.034 84.0011H134.073L124.391 106.426C123.648 108.139 124.202 110.139 125.725 111.239C127.249 112.339 129.326 112.239 130.749 111.014L162.981 83.0136C164.241 81.9136 164.694 80.1511 164.102 78.6011C163.51 77.0511 162.012 76.0136 160.325 76.0136H146.286L155.968 53.5761Z" fill="url(#paint4_linear_1036_4601)"/>
<path d="M145.695 44.4418L145.685 44.4504L145.675 44.459L113.443 72.459L113.436 72.4646L113.43 72.4702C110.319 75.1878 109.144 79.5932 110.652 83.5412C112.127 87.4057 115.861 90.0011 120.034 90.0011H124.947L118.886 104.038C118.885 104.04 118.885 104.042 118.884 104.044C117.014 108.363 118.426 113.369 122.213 116.103C126.012 118.846 131.16 118.577 134.664 115.56L134.674 115.552L134.684 115.543L166.916 87.5432L166.923 87.5377L166.929 87.5321C170.04 84.8145 171.215 80.4091 169.707 76.4611C168.225 72.5775 164.49 70.0136 160.325 70.0136H155.41L161.473 55.9639C161.474 55.9616 161.475 55.9594 161.476 55.9571C163.345 51.6387 161.933 46.6331 158.146 43.8991C154.347 41.156 149.199 41.4251 145.695 44.4418Z" stroke="white" stroke-opacity="0.12" stroke-width="12"/>
</g>
<defs>
<linearGradient id="paint0_linear_1036_4601" x1="140" y1="0" x2="140" y2="160" gradientUnits="userSpaceOnUse">
<stop stop-color="#9DCEFB"/>
<stop offset="1" stop-color="#4A9DF8"/>
</linearGradient>
<linearGradient id="paint1_linear_1036_4601" x1="140" y1="-58" x2="140" y2="218" gradientUnits="userSpaceOnUse">
<stop stop-color="#F2BF53"/>
<stop offset="1" stop-color="#E67158"/>
</linearGradient>
<linearGradient id="paint2_linear_1036_4601" x1="140" y1="-58" x2="140" y2="218" gradientUnits="userSpaceOnUse">
<stop stop-color="#9DCEFB"/>
<stop offset="1" stop-color="#4A9DF8"/>
</linearGradient>
<linearGradient id="paint3_linear_1036_4601" x1="140.18" y1="48" x2="140.18" y2="112.002" gradientUnits="userSpaceOnUse">
<stop stop-color="#F2BF53"/>
<stop offset="1" stop-color="#E67158"/>
</linearGradient>
<linearGradient id="paint4_linear_1036_4601" x1="140.18" y1="48" x2="140.18" y2="112.002" gradientUnits="userSpaceOnUse">
<stop stop-color="#9DCEFB"/>
<stop offset="1" stop-color="#4A9DF8"/>
</linearGradient>
<clipPath id="clip0_1036_4601">
<path d="M0 32C0 14.3269 14.3269 0 32 0H248C265.673 0 280 14.3269 280 32V128C280 145.673 265.673 160 248 160H8C3.58172 160 0 156.418 0 152V32Z" fill="white"/>
</clipPath>
</defs>
</svg>
