<svg width="280" height="160" viewBox="0 0 280 160" fill="none" xmlns="http://www.w3.org/2000/svg">
<g clip-path="url(#clip0_1036_4610)">
<path d="M0 32C0 14.3269 14.3269 0 32 0H248C265.673 0 280 14.3269 280 32V128C280 145.673 265.673 160 248 160H8C3.58172 160 0 156.418 0 152V32Z" fill="white"/>
<path d="M0 32C0 14.3269 14.3269 0 32 0H248C265.673 0 280 14.3269 280 32V128C280 145.673 265.673 160 248 160H8C3.58172 160 0 156.418 0 152V32Z" fill="url(#paint0_linear_1036_4610)" fill-opacity="0.08"/>
<g opacity="0.1">
<path d="M32 -4.34823V69.4704C32 77.8645 35.3083 85.913 41.2335 91.8382L128.137 178.742C140.481 191.086 160.479 191.086 172.823 178.742L238.742 112.823C251.086 100.479 251.086 80.4815 238.742 68.1373L151.838 -18.7663C145.913 -24.6916 137.864 -27.9998 129.47 -27.9998H55.701C42.6161 -28.0492 32 -17.4331 32 -4.34823ZM87.3023 43.0537C78.5626 43.0537 71.5017 35.9928 71.5017 27.2531C71.5017 18.5133 78.5626 11.4524 87.3023 11.4524C96.0421 11.4524 103.103 18.5133 103.103 27.2531C103.103 35.9928 96.0421 43.0537 87.3023 43.0537Z" fill="black"/>
<path d="M32 -4.34823V69.4704C32 77.8645 35.3083 85.913 41.2335 91.8382L128.137 178.742C140.481 191.086 160.479 191.086 172.823 178.742L238.742 112.823C251.086 100.479 251.086 80.4815 238.742 68.1373L151.838 -18.7663C145.913 -24.6916 137.864 -27.9998 129.47 -27.9998H55.701C42.6161 -28.0492 32 -17.4331 32 -4.34823ZM87.3023 43.0537C78.5626 43.0537 71.5017 35.9928 71.5017 27.2531C71.5017 18.5133 78.5626 11.4524 87.3023 11.4524C96.0421 11.4524 103.103 18.5133 103.103 27.2531C103.103 35.9928 96.0421 43.0537 87.3023 43.0537Z" fill="url(#paint1_linear_1036_4610)"/>
</g>
<path d="M116 61.2559V77.6601C116 79.5255 116.735 81.314 118.052 82.6307L137.364 101.943C140.107 104.686 144.551 104.686 147.294 101.943L161.943 87.2941C164.686 84.5509 164.686 80.107 161.943 77.3638L142.631 58.0519C141.314 56.7352 139.525 56 137.66 56H121.267C118.359 55.9891 116 58.3482 116 61.2559ZM128.289 71.7897C126.347 71.7897 124.778 70.2206 124.778 68.2785C124.778 66.3363 126.347 64.7672 128.289 64.7672C130.232 64.7672 131.801 66.3363 131.801 68.2785C131.801 70.2206 130.232 71.7897 128.289 71.7897Z" fill="black"/>
<path d="M116 61.2559V77.6601C116 79.5255 116.735 81.314 118.052 82.6307L137.364 101.943C140.107 104.686 144.551 104.686 147.294 101.943L161.943 87.2941C164.686 84.5509 164.686 80.107 161.943 77.3638L142.631 58.0519C141.314 56.7352 139.525 56 137.66 56H121.267C118.359 55.9891 116 58.3482 116 61.2559ZM128.289 71.7897C126.347 71.7897 124.778 70.2206 124.778 68.2785C124.778 66.3363 126.347 64.7672 128.289 64.7672C130.232 64.7672 131.801 66.3363 131.801 68.2785C131.801 70.2206 130.232 71.7897 128.289 71.7897Z" fill="url(#paint2_linear_1036_4610)"/>
</g>
<defs>
<linearGradient id="paint0_linear_1036_4610" x1="20.4167" y1="1.25625e-06" x2="63.9912" y2="178.55" gradientUnits="userSpaceOnUse">
<stop stop-color="#FFE73E"/>
<stop offset="1" stop-color="#EAC412"/>
</linearGradient>
<linearGradient id="paint1_linear_1036_4610" x1="47.75" y1="-28" x2="140" y2="188" gradientUnits="userSpaceOnUse">
<stop stop-color="#FFE73E"/>
<stop offset="1" stop-color="#EAC412"/>
</linearGradient>
<linearGradient id="paint2_linear_1036_4610" x1="119.5" y1="56" x2="140" y2="104" gradientUnits="userSpaceOnUse">
<stop stop-color="#FFE73E"/>
<stop offset="1" stop-color="#EAC412"/>
</linearGradient>
<clipPath id="clip0_1036_4610">
<path d="M0 32C0 14.3269 14.3269 0 32 0H248C265.673 0 280 14.3269 280 32V128C280 145.673 265.673 160 248 160H8C3.58172 160 0 156.418 0 152V32Z" fill="white"/>
</clipPath>
</defs>
</svg>
